# xmcd CD database file
#
# Track frame offsets:
#	150
#	16402
#	32315
#	50541
#	63095
#	78670
#	92939
#	110713
#	126417
#	147428
#	165733
#	179117
#	194117
#	214139
#	237027
#	258566
#
# Disc length: 3774 seconds
#
# Revision: 0
# Processed by: cddbd v1.5.2PL0 Copyright (c) Steve Scherf et al.
# Submitted via: CDex 1.51
#
DISCID=f10ebc10
DTITLE=Klaus "Mojo" Kilian, Bernd Simon - Down Home Percolators
DYEAR=1900
DGENRE=Blues
TTITLE0=Mississippi Moan
TTITLE1=Wonderful Time
TTITLE2=It's A Man Down There
TTITLE3=Blues For Martin Luther King
TTITLE4=Going Down The Road Feeling Bad
TTITLE5=I'm A Stranger Here
TTITLE6=Bring It On Home
TTITLE7=Hydramatic Woman
TTITLE8=Don't Get Around Much Anymore
TTITLE9=Take A Little Walk With Me
TTITLE10=Mr. Crump Don't Like It
TTITLE11=Mother-In-Law Blues
TTITLE12=Good Morning, School Girl
TTITLE13=Shake 'Em On Down
TTITLE14=Tough Times
TTITLE15=Cocaine Habit Blues
EXTD=
EXTT0=
EXTT1=
EXTT2=
EXTT3=
EXTT4=
EXTT5=
EXTT6=
EXTT7=
EXTT8=
EXTT9=
EXTT10=
EXTT11=
EXTT12=
EXTT13=
EXTT14=
EXTT15=
PLAYORDER=
